<?xml version="1.0" standalone="no"?><!DOCTYPE svg PUBLIC "-//W3C//DTD SVG 1.1//EN" "http://www.w3.org/Graphics/SVG/1.1/DTD/svg11.dtd"><svg t="1573048812642" class="icon" viewBox="0 0 1024 1024" version="1.1" xmlns="http://www.w3.org/2000/svg" p-id="1942" xmlns:xlink="http://www.w3.org/1999/xlink" width="200" height="200"><defs><style type="text/css"></style></defs><path d="M448.752 611.791l69.672 61.725 57.21-61.725-60.931-400.913h-1.17z" p-id="1943"></path><path d="M512.194 91.876c-232.046 0-420.156 188.11-420.156 420.157 0 108.995 41.505 208.295 109.57 282.963l59.808-38.366c-57.432-58.872-94.3-137.893-99.014-225.46h53.863v-34.297H162.21c7.697-180.748 152.349-326.035 332.835-334.735v48.74h34.299v-48.74c180.485 8.701 325.137 153.987 332.834 334.735h-54.205v34.298h54.014c-4.664 86.607-40.779 164.855-97.135 223.518l57.927 40.307c68.066-74.668 109.572-173.968 109.572-282.963-0.001-232.046-188.112-420.157-420.157-420.157z" p-id="1944"></path></svg>