<?xml version="1.0" standalone="no"?><!DOCTYPE svg PUBLIC "-//W3C//DTD SVG 1.1//EN" "http://www.w3.org/Graphics/SVG/1.1/DTD/svg11.dtd"><svg t="1573081478828" class="icon" viewBox="0 0 1024 1024" version="1.1" xmlns="http://www.w3.org/2000/svg" p-id="788" xmlns:xlink="http://www.w3.org/1999/xlink" width="200" height="200"><defs><style type="text/css"></style></defs><path d="M740.11453366 210.9223367a399.67245373 399.67245373 0 0 1 71.15239023 64.38870236 420.72543347 420.72543347 0 0 1 53.29411661 77.70220643 383.47168332 383.47168332 0 0 1 33.79170464 88.36904965 391.46513269 391.46513269 0 0 1 11.65599922 94.59805874q0 82.59451776-31.57278718 154.99003684t-85.38821521 126.10401086q-53.82879538 53.73522647-126.31788253 85.24117859t-155.19054117 31.55941983q-81.81923347 0-154.29495411-31.53268597a411.70272775 411.70272775 0 0 1-126.74562588-85.25454594 395.46185696 395.46185696 0 0 1-85.38821521-126.11737737Q113.97884659 618.58823898 113.97884659 535.98035388a386.19854572 386.19854572 0 0 1 11.10795309-92.36577393A409.92492096 409.92492096 0 0 1 156.65958686 357.46444696a379.84923469 379.84923469 0 0 1 50.70092349-76.37887601 431.95369015 431.95369015 0 0 1 67.59677581-63.9475925 56.91656525 56.91656525 0 0 1 42.2396304-10.69357708c9.81135736 1.2698627 19.93015448 10.27920108 20.81237504 21.18664983 1.47036704 18.27265045-11.50896259 32.73571362-26.14579624 43.88376792q-65.88580325 48.12109771-100.93400327 118.12392883T175.92139328 540.07064707a327.27693467 327.27693467 0 0 0 26.14579624 130.07400127 335.51098957 335.51098957 0 0 0 71.67370247 106.58823239 342.19447503 342.19447503 0 0 0 106.64170012 72.11481236 331.50089795 331.50089795 0 0 0 260.44207662 0A339.6280166 339.6280166 0 0 0 819.6346489 670.15801568a320.80732004 320.80732004 0 0 0 26.61363994-130.08736861 330.16420019 330.16420019 0 0 0-37.62802495-154.10781629 325.94023774 325.94023774 0 0 0-105.59907642-119.63439706c-15.34528372-10.43960505-26.60027344-25.26357651-24.74226425-43.53622615 1.33669693-12.97932962 9.07617343-19.70291629 19.15487018-21.18665066 15.478953-2.28575254 29.64794294 0.44110987 42.68074026 9.35688016z" fill="#707070" p-id="789"></path><path d="M503.14486023 90.12501318a35.36900711 35.36900711 0 0 1 35.39574097 35.34227325v353.81037387a35.38237445 35.38237445 0 0 1-70.75138157 0V125.50738764A35.36900711 35.36900711 0 0 1 503.14486023 90.12501318z" fill="#707070" p-id="790"></path></svg>