<?xml version="1.0" standalone="no"?><!DOCTYPE svg PUBLIC "-//W3C//DTD SVG 1.1//EN" "http://www.w3.org/Graphics/SVG/1.1/DTD/svg11.dtd"><svg t="1575291163638" class="icon" viewBox="0 0 1024 1024" version="1.1" xmlns="http://www.w3.org/2000/svg" p-id="5261" xmlns:xlink="http://www.w3.org/1999/xlink" width="200" height="200"><defs><style type="text/css"></style></defs><path d="M912 275.6v472.7c0 45-16 83.6-48 115.7-32 32-70.5 48-115.7 48H275.7c-45 0-83.6-16-115.7-48s-48-70.5-48-115.7V275.6c0-45 16-83.6 48-115.7s70.5-48 115.7-48h472.7c45 0 83.6 16 115.7 48C896 192 912 230.6 912 275.6z m-72.7 472.8V275.6c0-25-9-46.4-26.6-64.2-17.8-17.8-39.2-26.6-64.2-26.6H275.7c-25 0-46.4 9-64.2 26.6-17.8 17.8-26.6 39.2-26.6 64.2v472.7c0 25 8.8 46.4 26.6 64.2 17.8 17.8 39.2 26.6 64.2 26.6h472.7c25 0 46.4-8.8 64.2-26.6 17.8-17.8 26.7-39.2 26.7-64.1z m-72.7-254.6v36.3c0 5.3-1.7 9.7-5.1 13-3.5 3.5-7.8 5.1-13 5.1H275.7c-5.3 0-9.7-1.7-13-5.1-3.5-3.5-5.1-7.8-5.1-13v-36.3c0-5.3 1.7-9.7 5.1-13 3.5-3.5 7.8-5.1 13-5.1h472.7c5.3 0 9.7 1.7 13 5.1 3.5 3.4 5.2 7.8 5.2 13z" p-id="5262"></path></svg>